<svg version="1.1" id="Layer_1" xmlns="http://www.w3.org/2000/svg" x="0" y="0" viewBox="0 0 1080 1080" style="enable-background:new 0 0 1080 1080" xml:space="preserve"><style>.st0{fill:#1e80c3}.st1{fill:#fff}.st2{fill:#231f20}</style><path class="st1" d="M540.39 923.06c-8.75-2.7-16.87-6.94-20.24-15.75-2.5-6.53-6.19-7.5-12.44-8.01-78.56-6.45-148.36-34.75-208.99-85.17-43.04-35.79-76.11-79.34-99.74-130.07-1.15-2.47-1.3-3.88 1.78-4.82 3.26-1.01 6.61-4.52 9.37-3.52 2.78 1 3.26 5.72 4.81 8.78 50.3 99.12 129.03 163.24 236.62 191.59 20 5.27 40.49 8.07 61.15 9.52 3.25.23 4.89-.47 6.25-3.9 5.05-12.74 18.85-20.01 32.48-17.73 13.39 2.25 23.63 13.69 24.72 27.63 1.02 13.06-7.7 25.9-20.35 30.22-1.23.42-2.86-.23-3.73 1.24-3.9-.01-7.79-.01-11.69-.01zM9.48 575.08c2.37-5.06 3.16-10.67 5.89-15.64 9.62-17.52 24.57-26.97 44.14-29.39 15.18-1.87 29.54.45 42.56 8.99 3.28 2.15 6.02 4.89 8.82 7.6 1.53 1.47 1.58 2.54-.09 4-4.08 3.56-8.15 7.15-11.96 10.99-1.96 1.98-2.92 1.74-4.84-.14-10.74-10.56-25.81-13.38-39.54-7.38-11.74 5.13-17.92 14.47-19.14 27.04-1.27 13.16 2.34 24.53 13.56 32.45 13.55 9.58 32.82 7.89 44.67-3.97 2.49-2.49 3.76-2.4 6.05.03 3.33 3.53 6.96 6.8 10.7 9.9 2.17 1.8 2.07 2.91.18 4.88-10.55 11.04-23.69 15.78-38.65 16.79-25.28 1.7-47.46-10.66-57.62-32.24-2.11-4.49-2.65-9.43-4.73-13.88v-20.03zM536.92 156.97c70.07.32 135.13 18.4 194.91 55.11 2.24 1.38 3.75 1.68 6.18.05 10.58-7.09 23.77-6.68 33.91.68 10.13 7.35 14.87 20.35 11 32.48-1.18 3.7.45 4.99 2.49 6.82 43.97 39.58 76.77 86.9 98.29 142 11.28 28.88 18.85 58.71 22.34 89.54 1 8.87.91 8.54-8.04 9.84-4.34.63-5.09-.41-5.56-4.57-7.73-67.25-32.44-127.63-74.11-181-12.94-16.57-27.35-31.79-42.95-45.9-2.03-1.84-3.14-1.1-4.9.01-10.71 6.76-24.12 6.26-33.91-1.15-10.2-7.73-14.49-20.3-10.64-32.6.93-2.96-.52-3.56-2.33-4.66-28.4-17.32-58.57-30.52-90.64-39.42-36.67-10.18-74.02-14.58-112.01-12.7-80.18 3.95-151.57 31.28-213.09 82.8-62.9 52.69-103.18 119.48-120.68 199.79-2.66 12.2-4.73 24.49-5.79 36.94-.2 2.33-.88 3.15-3.37 2.68-3.4-.65-7.85.3-10.06-1.56-2.44-2.06-.29-6.43.11-9.78 4.56-38.24 14.95-74.86 31.31-109.68 35.85-76.29 91.18-134.2 165.64-173.68 37.53-19.9 77.54-32.45 119.57-38.43 17.32-2.47 34.77-3.87 52.33-3.61z"/><path class="st1" d="M529.76 330.64c0-17.8.06-35.6-.06-53.39-.02-3.04.42-4.28 3.99-4.27 71.22.14 132.69 24.57 183.37 74.6 38.27 37.78 61.98 83.6 71.37 136.67 1.43 8.08 1.42 8.09-6.67 9.08-5.89.72-5.89.72-6.88-5.1-16.31-95.95-88.73-172.65-184.21-194.97-14.2-3.32-28.66-4.97-43.22-5.86-2.77-.17-3.53.71-3.52 3.46.09 31.42.09 62.85-.01 94.27-.01 2.59.79 3.21 3.23 3.4 24.36 1.93 46.88 9.34 67.25 22.95 27.91 18.65 46.69 44.15 57.02 76.02 1.03 3.17.34 4.37-2.76 4.96-3.23.61-7 2.95-9.45 1.93-2.54-1.06-2.32-5.78-3.54-8.82-18.3-45.58-51.3-73.27-99.92-81.66-23.6-4.07-46.37-.47-68.4 8.54-2.4.98-3.85 1.62-2.96 5.21 3.04 12.27-.38 22.94-10.47 30.75-9.89 7.66-20.86 8.52-32.03 2.86-2.65-1.34-3.76-1.3-5.57 1.14-8.95 12-15.74 25.08-20.04 39.39-.88 2.93-1.82 3.2-4.57 2.43-10.54-2.97-10.61-2.87-6.94-13.05 5.25-14.59 12.7-27.98 22.42-40.07 1.38-1.72 1.65-2.95.8-5.09-5.01-12.67-1.16-26.51 9.43-34.74 10.55-8.2 24.7-8.37 36-.37 1.16.82 1.92 1.52 3.6.72 15.65-7.51 32.2-11.79 49.5-13.05 2.76-.2 3.32-1.17 3.31-3.73-.12-18.05-.07-36.13-.07-54.21zM281.61 574.47c0 20.7-.13 40.27.11 59.83.05 4.12-.82 5.49-5.1 5.15-5.39-.44-10.85-.31-16.26-.03-3.1.16-3.88-.67-3.87-3.82.13-32.25.08-64.5.08-96.76 0-7.39.11-6.61 7.22-7.57 10.51-1.43 16.87 2.88 23.08 11.03 13.86 18.19 28.8 35.56 43.39 53.37 1.09-1.4.57-2.82.57-4.11.04-18.77.11-37.54-.05-56.3-.02-3.06.62-4.04 3.83-3.89 5.97.3 11.96.18 17.93.04 2.41-.06 3.37.4 3.36 3.14-.1 33.92-.1 67.84.01 101.76.01 2.78-.98 3.17-3.35 3.08-5.96-.23-12.77 1.52-17.65-.83-4.89-2.36-7.85-8.71-11.64-13.33-13.65-16.63-27.29-33.26-41.66-50.76zM532.52 784.63c-78.37-2.2-146-34.88-197.77-99.78-1.89-2.37-1.65-3.41.75-4.91 2.92-1.83 5.83-5.87 8.32-5.56 2.51.31 4.51 4.78 6.73 7.43 38.54 46.02 87.1 75.57 146.44 84.88 83.2 13.05 154.74-11.49 214.17-71.15a169.74 169.74 0 0 0 16.8-19.61c1.58-2.15 2.59-2.18 4.45-.52 2.67 2.39 7.51 3.86 7.92 6.83.4 2.96-3.66 5.81-5.95 8.55-38.11 45.62-85.97 75.23-144.18 87.94-17.58 3.84-35.36 5.39-57.68 5.9zM553.41 607.24c8.76-20.26 17.5-40.49 26.24-60.71 1.81-4.19 3.68-8.36 5.42-12.58.63-1.52 1.23-2.58 3.21-2.55 7.5.11 15 .04 23.1.04-3 7.06-5.8 13.73-8.68 20.38-12.14 28.03-24.34 56.03-36.39 84.09-1.08 2.52-2.22 3.63-5.11 3.5-6.11-.26-12.24-.17-18.35-.03-2.21.05-3.39-.47-4.34-2.68-14.6-34.04-29.27-68.05-44.06-102.01-1.41-3.24-.16-3.33 2.45-3.29 6.67.11 13.36.2 20.02-.04 2.85-.1 4.07.88 5.15 3.46 9.68 23.07 19.52 46.07 29.35 69.07.48 1.13.67 2.45 1.99 3.35zM960.12 640.17c-33.93.04-54.98-23.98-51.87-54 3.9-37.63 42.3-51.27 70.14-37.79 4.98 2.41 8.91 6.04 12.46 10.21 1.5 1.76 1.36 2.72-.51 4.28-3.2 2.67-4.92 3.08-8.38-.56-10.41-10.97-23.81-12.49-37.65-8.57-14.31 4.06-22.96 14.17-25.69 28.73-2.76 14.68-.19 28.24 10.98 39.08 14.77 14.33 42.4 13.18 54.15-1.99 3.41-4.4 4.7.74 6.82 1.54 2.75 1.03 1.15 2.78 0 4.19-8.87 10.82-20.76 14.69-30.45 14.88zM742.47 585.51c0-9.87-.09-19.73.06-29.6.04-2.6-.47-3.69-3.35-3.49-3.87.27-7.78.04-11.67.07-4.2.04-1.98-3.13-2.34-4.87-.35-1.69-.58-3.64 2.44-3.47 3.88.22 7.79-.1 11.67.11 2.49.13 3.4-.45 3.27-3.14-.25-4.85.09-9.73-.13-14.58-.13-2.69.84-3.47 3.32-3.15 1.09.14 2.24.16 3.33 0 2.69-.39 3.29.84 3.21 3.31-.17 4.86.08 9.73-.11 14.59-.09 2.39.66 3.02 3 2.98 8.06-.14 16.13.13 24.18-.14 3.27-.11 3.31 1.51 3.06 3.74-.23 2.01 1.28 4.85-2.99 4.7-7.78-.26-15.57.06-23.35-.15-2.98-.08-3.98.51-3.94 3.78.18 18.76.13 37.52.07 56.28-.02 7.15 1.21 13.91 8.19 17.4 7.34 3.66 14.79 2.77 21.8-1.54.98-.61 2.23-2.69 3.04-.16.67 2.1 4.73 3.61 1.54 6.53-13 11.86-38.1 5.19-42.97-11.4-1.1-3.75-1.33-7.62-1.32-11.52 0-8.77-.01-17.53-.01-26.28zM1034.99 644.34c-10.55 0-21.11-.02-31.66.02-1.93.01-3.35.16-3.33-2.67.02-2.88 1.56-2.62 3.43-2.62 21.25.02 42.49.03 63.74-.01 1.97 0 3.31-.04 3.35 2.73.05 3.03-1.7 2.54-3.45 2.54-10.7.01-21.39.01-32.08.01zM217.28 542.05c-15.2-12.05-32.83-14.8-51.53-11.22-37.65 7.21-54.42 43.83-41.89 75.71 8.52 21.69 29.48 34.69 55.23 34.71 5.71.02 11.38-.41 16.88-1.97 21.66-6.15 36.32-19.66 40.93-41.96 4.54-21.99-1.7-41.07-19.62-55.27zm-38.38 77.47c-19.53-.05-33.43-14.26-33.41-34.16.02-19.91 14.3-34.35 33.88-34.23 19.37.11 33.23 14.54 33.13 34.48-.09 19.94-13.99 33.97-33.6 33.91zM475.88 545.77c-14.03-13.68-31.4-17.54-50.61-15.83-35.65 3.17-59.27 37.84-48.71 72.05 7.45 24.13 29.21 39.24 57.82 39.26 1.52-.07 4.3-.13 7.07-.34 1.65-.13 3.3-.44 4.93-.79 21.33-4.49 36.84-16.36 43.42-37.36 6.69-21.36 2.42-41.06-13.92-56.99zm-42.69 73.75c-19.61-.02-33.21-14.01-33.25-34.19-.04-19.83 13.97-34.18 33.41-34.21 19.55-.02 33.65 14.47 33.59 34.54-.07 19.76-14.15 33.89-33.75 33.86zM723.03 638.26c-15.6-34.95-31.22-69.88-46.8-104.84-.77-1.72-1.89-2.03-3.57-2.01-6.53.07-13.07.15-19.6-.04-2.42-.07-3.31 1.01-4.18 2.99-8.64 19.59-17.37 39.14-26.09 58.69-6.8 15.25-13.63 30.5-20.68 46.28 8.29 0 15.93-.08 23.57.05 2.08.04 2.88-.81 3.58-2.58 2.39-6.03 5.07-11.96 7.38-18.02.8-2.1 1.93-2.63 4-2.62 14.6.07 29.19.08 43.79-.01 2.11-.01 3.16.6 3.95 2.64 2.33 6.06 4.93 12.01 7.42 18 .58 1.39 1 2.62 3.08 2.58 8.02-.15 16.05-.06 24.06-.06.06-.52.18-.83.09-1.05zm-75.05-41.3c-3.34-.03-1.21-2.08-.8-3.09 4.34-10.62 8.77-21.2 13.18-31.78.68-1.64 1.4-3.27 2.27-5.31 5.48 13.19 10.77 25.93 16.05 38.68.15.36.1.79.18 1.53-10.36 0-20.62.05-30.88-.03zM812.56 594.11c12.38.26 24.76.1 37.14.1h33.8c7.37 0 7.36 0 6.89-7.31-2.12-32.86-31.58-50.73-60.99-40.9-22.09 7.38-34.51 32.27-28.93 56.98 4.73 20.96 20.76 35.17 42.23 36.99 13.87 1.17 26.86-1.41 37.69-10.92 4.87-4.28 4.72-5.07-.07-9.52-1.19-1.11-1.65-.83-2.57.16-10.02 10.74-22.68 13.04-36.58 11.35-16.58-2.02-30.7-16.58-32.1-32.9-.25-2.9.01-4.1 3.49-4.03zm-3.43-10.71c2.06-17.1 16.4-30.6 33.8-31.67 17.4-1.07 33.19 10.56 37.24 27.42 1.83 7.61 1.83 7.61-5.85 7.61h-29.15c-10.97 0-21.93-.1-32.9.07-2.79.05-3.47-.72-3.14-3.43z"/></svg>