<?xml version="1.0" encoding="utf-8"?>
<!-- Generator: Adobe Illustrator 24.1.1, SVG Export Plug-In . SVG Version: 6.00 Build 0)  -->
<svg version="1.1" id="Layer_1" xmlns="http://www.w3.org/2000/svg" xmlns:xlink="http://www.w3.org/1999/xlink" x="0px" y="0px"
	 viewBox="0 0 1080 1080" style="enable-background:new 0 0 1080 1080;" xml:space="preserve">
<style type="text/css">
	.st0{fill:#1E80C3;}
	.st1{fill:#FFFFFF;}
	.st2{fill:#231F20;}
</style>
<g>
	<path class="st1" d="M540.39,923.06c-8.75-2.7-16.87-6.94-20.24-15.75c-2.5-6.53-6.19-7.5-12.44-8.01
		c-78.56-6.45-148.36-34.75-208.99-85.17c-43.04-35.79-76.11-79.34-99.74-130.07c-1.15-2.47-1.3-3.88,1.78-4.82
		c3.26-1.01,6.61-4.52,9.37-3.52c2.78,1,3.26,5.72,4.81,8.78c50.3,99.12,129.03,163.24,236.62,191.59c20,5.27,40.49,8.07,61.15,9.52
		c3.25,0.23,4.89-0.47,6.25-3.9c5.05-12.74,18.85-20.01,32.48-17.73c13.39,2.25,23.63,13.69,24.72,27.63
		c1.02,13.06-7.7,25.9-20.35,30.22c-1.23,0.42-2.86-0.23-3.73,1.24C548.18,923.06,544.29,923.06,540.39,923.06z"/>
	<path class="st1" d="M9.48,575.08c2.37-5.06,3.16-10.67,5.89-15.64c9.62-17.52,24.57-26.97,44.14-29.39
		c15.18-1.87,29.54,0.45,42.56,8.99c3.28,2.15,6.02,4.89,8.82,7.6c1.53,1.47,1.58,2.54-0.09,4c-4.08,3.56-8.15,7.15-11.96,10.99
		c-1.96,1.98-2.92,1.74-4.84-0.14c-10.74-10.56-25.81-13.38-39.54-7.38c-11.74,5.13-17.92,14.47-19.14,27.04
		c-1.27,13.16,2.34,24.53,13.56,32.45c13.55,9.58,32.82,7.89,44.67-3.97c2.49-2.49,3.76-2.4,6.05,0.03c3.33,3.53,6.96,6.8,10.7,9.9
		c2.17,1.8,2.07,2.91,0.18,4.88c-10.55,11.04-23.69,15.78-38.65,16.79c-25.28,1.7-47.46-10.66-57.62-32.24
		c-2.11-4.49-2.65-9.43-4.73-13.88C9.48,588.44,9.48,581.76,9.48,575.08z"/>
	<path class="st1" d="M536.92,156.97c70.07,0.32,135.13,18.4,194.91,55.11c2.24,1.38,3.75,1.68,6.18,0.05
		c10.58-7.09,23.77-6.68,33.91,0.68c10.13,7.35,14.87,20.35,11,32.48c-1.18,3.7,0.45,4.99,2.49,6.82
		c43.97,39.58,76.77,86.9,98.29,142c11.28,28.88,18.85,58.71,22.34,89.54c1,8.87,0.91,8.54-8.04,9.84
		c-4.34,0.63-5.09-0.41-5.56-4.57c-7.73-67.25-32.44-127.63-74.11-181c-12.94-16.57-27.35-31.79-42.95-45.9
		c-2.03-1.84-3.14-1.1-4.9,0.01c-10.71,6.76-24.12,6.26-33.91-1.15c-10.2-7.73-14.49-20.3-10.64-32.6c0.93-2.96-0.52-3.56-2.33-4.66
		c-28.4-17.32-58.57-30.52-90.64-39.42c-36.67-10.18-74.02-14.58-112.01-12.7c-80.18,3.95-151.57,31.28-213.09,82.8
		c-62.9,52.69-103.18,119.48-120.68,199.79c-2.66,12.2-4.73,24.49-5.79,36.94c-0.2,2.33-0.88,3.15-3.37,2.68
		c-3.4-0.65-7.85,0.3-10.06-1.56c-2.44-2.06-0.29-6.43,0.11-9.78c4.56-38.24,14.95-74.86,31.31-109.68
		c35.85-76.29,91.18-134.2,165.64-173.68c37.53-19.9,77.54-32.45,119.57-38.43C501.91,158.11,519.36,156.71,536.92,156.97z"/>
	<path class="st1" d="M529.76,330.64c0-17.8,0.06-35.6-0.06-53.39c-0.02-3.04,0.42-4.28,3.99-4.27
		c71.22,0.14,132.69,24.57,183.37,74.6c38.27,37.78,61.98,83.6,71.37,136.67c1.43,8.08,1.42,8.09-6.67,9.08
		c-5.89,0.72-5.89,0.72-6.88-5.1c-16.31-95.95-88.73-172.65-184.21-194.97c-14.2-3.32-28.66-4.97-43.22-5.86
		c-2.77-0.17-3.53,0.71-3.52,3.46c0.09,31.42,0.09,62.85-0.01,94.27c-0.01,2.59,0.79,3.21,3.23,3.4
		c24.36,1.93,46.88,9.34,67.25,22.95c27.91,18.65,46.69,44.15,57.02,76.02c1.03,3.17,0.34,4.37-2.76,4.96
		c-3.23,0.61-7,2.95-9.45,1.93c-2.54-1.06-2.32-5.78-3.54-8.82c-18.3-45.58-51.3-73.27-99.92-81.66c-23.6-4.07-46.37-0.47-68.4,8.54
		c-2.4,0.98-3.85,1.62-2.96,5.21c3.04,12.27-0.38,22.94-10.47,30.75c-9.89,7.66-20.86,8.52-32.03,2.86
		c-2.65-1.34-3.76-1.3-5.57,1.14c-8.95,12-15.74,25.08-20.04,39.39c-0.88,2.93-1.82,3.2-4.57,2.43
		c-10.54-2.97-10.61-2.87-6.94-13.05c5.25-14.59,12.7-27.98,22.42-40.07c1.38-1.72,1.65-2.95,0.8-5.09
		c-5.01-12.67-1.16-26.51,9.43-34.74c10.55-8.2,24.7-8.37,36-0.37c1.16,0.82,1.92,1.52,3.6,0.72c15.65-7.51,32.2-11.79,49.5-13.05
		c2.76-0.2,3.32-1.17,3.31-3.73C529.71,366.8,529.76,348.72,529.76,330.64z"/>
	<path class="st1" d="M281.61,574.47c0,20.7-0.13,40.27,0.11,59.83c0.05,4.12-0.82,5.49-5.1,5.15c-5.39-0.44-10.85-0.31-16.26-0.03
		c-3.1,0.16-3.88-0.67-3.87-3.82c0.13-32.25,0.08-64.5,0.08-96.76c0-7.39,0.11-6.61,7.22-7.57c10.51-1.43,16.87,2.88,23.08,11.03
		c13.86,18.19,28.8,35.56,43.39,53.37c1.09-1.4,0.57-2.82,0.57-4.11c0.04-18.77,0.11-37.54-0.05-56.3
		c-0.02-3.06,0.62-4.04,3.83-3.89c5.97,0.3,11.96,0.18,17.93,0.04c2.41-0.06,3.37,0.4,3.36,3.14c-0.1,33.92-0.1,67.84,0.01,101.76
		c0.01,2.78-0.98,3.17-3.35,3.08c-5.96-0.23-12.77,1.52-17.65-0.83c-4.89-2.36-7.85-8.71-11.64-13.33
		C309.62,608.6,295.98,591.97,281.61,574.47z"/>
	<path class="st1" d="M532.52,784.63c-78.37-2.2-146-34.88-197.77-99.78c-1.89-2.37-1.65-3.41,0.75-4.91
		c2.92-1.83,5.83-5.87,8.32-5.56c2.51,0.31,4.51,4.78,6.73,7.43c38.54,46.02,87.1,75.57,146.44,84.88
		c83.2,13.05,154.74-11.49,214.17-71.15c6.08-6.1,11.71-12.65,16.8-19.61c1.58-2.15,2.59-2.18,4.45-0.52
		c2.67,2.39,7.51,3.86,7.92,6.83c0.4,2.96-3.66,5.81-5.95,8.55c-38.11,45.62-85.97,75.23-144.18,87.94
		C572.62,782.57,554.84,784.12,532.52,784.63z"/>
	<path class="st1" d="M553.41,607.24c8.76-20.26,17.5-40.49,26.24-60.71c1.81-4.19,3.68-8.36,5.42-12.58
		c0.63-1.52,1.23-2.58,3.21-2.55c7.5,0.11,15,0.04,23.1,0.04c-3,7.06-5.8,13.73-8.68,20.38c-12.14,28.03-24.34,56.03-36.39,84.09
		c-1.08,2.52-2.22,3.63-5.11,3.5c-6.11-0.26-12.24-0.17-18.35-0.03c-2.21,0.05-3.39-0.47-4.34-2.68
		c-14.6-34.04-29.27-68.05-44.06-102.01c-1.41-3.24-0.16-3.33,2.45-3.29c6.67,0.11,13.36,0.2,20.02-0.04
		c2.85-0.1,4.07,0.88,5.15,3.46c9.68,23.07,19.52,46.07,29.35,69.07C551.9,605.02,552.09,606.34,553.41,607.24z"/>
	<path class="st1" d="M960.12,640.17c-33.93,0.04-54.98-23.98-51.87-54c3.9-37.63,42.3-51.27,70.14-37.79
		c4.98,2.41,8.91,6.04,12.46,10.21c1.5,1.76,1.36,2.72-0.51,4.28c-3.2,2.67-4.92,3.08-8.38-0.56
		c-10.41-10.97-23.81-12.49-37.65-8.57c-14.31,4.06-22.96,14.17-25.69,28.73c-2.76,14.68-0.19,28.24,10.98,39.08
		c14.77,14.33,42.4,13.18,54.15-1.99c3.41-4.4,4.7,0.74,6.82,1.54c2.75,1.03,1.15,2.78,0,4.19
		C981.7,636.11,969.81,639.98,960.12,640.17z"/>
	<path class="st1" d="M742.47,585.51c0-9.87-0.09-19.73,0.06-29.6c0.04-2.6-0.47-3.69-3.35-3.49c-3.87,0.27-7.78,0.04-11.67,0.07
		c-4.2,0.04-1.98-3.13-2.34-4.87c-0.35-1.69-0.58-3.64,2.44-3.47c3.88,0.22,7.79-0.1,11.67,0.11c2.49,0.13,3.4-0.45,3.27-3.14
		c-0.25-4.85,0.09-9.73-0.13-14.58c-0.13-2.69,0.84-3.47,3.32-3.15c1.09,0.14,2.24,0.16,3.33,0c2.69-0.39,3.29,0.84,3.21,3.31
		c-0.17,4.86,0.08,9.73-0.11,14.59c-0.09,2.39,0.66,3.02,3,2.98c8.06-0.14,16.13,0.13,24.18-0.14c3.27-0.11,3.31,1.51,3.06,3.74
		c-0.23,2.01,1.28,4.85-2.99,4.7c-7.78-0.26-15.57,0.06-23.35-0.15c-2.98-0.08-3.98,0.51-3.94,3.78
		c0.18,18.76,0.13,37.52,0.07,56.28c-0.02,7.15,1.21,13.91,8.19,17.4c7.34,3.66,14.79,2.77,21.8-1.54c0.98-0.61,2.23-2.69,3.04-0.16
		c0.67,2.1,4.73,3.61,1.54,6.53c-13,11.86-38.1,5.19-42.97-11.4c-1.1-3.75-1.33-7.62-1.32-11.52
		C742.48,603.02,742.47,594.26,742.47,585.51z"/>
	<path class="st1" d="M1034.99,644.34c-10.55,0-21.11-0.02-31.66,0.02c-1.93,0.01-3.35,0.16-3.33-2.67
		c0.02-2.88,1.56-2.62,3.43-2.62c21.25,0.02,42.49,0.03,63.74-0.01c1.97,0,3.31-0.04,3.35,2.73c0.05,3.03-1.7,2.54-3.45,2.54
		C1056.37,644.34,1045.68,644.34,1034.99,644.34z"/>
	<path class="st1" d="M217.28,542.05c-15.2-12.05-32.83-14.8-51.53-11.22c-37.65,7.21-54.42,43.83-41.89,75.71
		c8.52,21.69,29.48,34.69,55.23,34.71c5.71,0.02,11.38-0.41,16.88-1.97c21.66-6.15,36.32-19.66,40.93-41.96
		C241.44,575.33,235.2,556.25,217.28,542.05z M178.9,619.52c-19.53-0.05-33.43-14.26-33.41-34.16c0.02-19.91,14.3-34.35,33.88-34.23
		c19.37,0.11,33.23,14.54,33.13,34.48C212.41,605.55,198.51,619.58,178.9,619.52z"/>
	<path class="st1" d="M475.88,545.77c-14.03-13.68-31.4-17.54-50.61-15.83c-35.65,3.17-59.27,37.84-48.71,72.05
		c7.45,24.13,29.21,39.24,57.82,39.26c1.52-0.07,4.3-0.13,7.07-0.34c1.65-0.13,3.3-0.44,4.93-0.79
		c21.33-4.49,36.84-16.36,43.42-37.36C496.49,581.4,492.22,561.7,475.88,545.77z M433.19,619.52
		c-19.61-0.02-33.21-14.01-33.25-34.19c-0.04-19.83,13.97-34.18,33.41-34.21c19.55-0.02,33.65,14.47,33.59,34.54
		C466.87,605.42,452.79,619.55,433.19,619.52z"/>
	<path class="st1" d="M723.03,638.26c-15.6-34.95-31.22-69.88-46.8-104.84c-0.77-1.72-1.89-2.03-3.57-2.01
		c-6.53,0.07-13.07,0.15-19.6-0.04c-2.42-0.07-3.31,1.01-4.18,2.99c-8.64,19.59-17.37,39.14-26.09,58.69
		c-6.8,15.25-13.63,30.5-20.68,46.28c8.29,0,15.93-0.08,23.57,0.05c2.08,0.04,2.88-0.81,3.58-2.58c2.39-6.03,5.07-11.96,7.38-18.02
		c0.8-2.1,1.93-2.63,4-2.62c14.6,0.07,29.19,0.08,43.79-0.01c2.11-0.01,3.16,0.6,3.95,2.64c2.33,6.06,4.93,12.01,7.42,18
		c0.58,1.39,1,2.62,3.08,2.58c8.02-0.15,16.05-0.06,24.06-0.06C723,638.79,723.12,638.48,723.03,638.26z M647.98,596.96
		c-3.34-0.03-1.21-2.08-0.8-3.09c4.34-10.62,8.77-21.2,13.18-31.78c0.68-1.64,1.4-3.27,2.27-5.31
		c5.48,13.19,10.77,25.93,16.05,38.68c0.15,0.36,0.1,0.79,0.18,1.53C668.5,596.99,658.24,597.04,647.98,596.96z"/>
	<path class="st1" d="M812.56,594.11c12.38,0.26,24.76,0.1,37.14,0.1c11.27,0,22.54,0,33.8,0c7.37,0,7.36,0,6.89-7.31
		c-2.12-32.86-31.58-50.73-60.99-40.9c-22.09,7.38-34.51,32.27-28.93,56.98c4.73,20.96,20.76,35.17,42.23,36.99
		c13.87,1.17,26.86-1.41,37.69-10.92c4.87-4.28,4.72-5.07-0.07-9.52c-1.19-1.11-1.65-0.83-2.57,0.16
		c-10.02,10.74-22.68,13.04-36.58,11.35c-16.58-2.02-30.7-16.58-32.1-32.9C808.82,595.24,809.08,594.04,812.56,594.11z
		 M809.13,583.4c2.06-17.1,16.4-30.6,33.8-31.67c17.4-1.07,33.19,10.56,37.24,27.42c1.83,7.61,1.83,7.61-5.85,7.61
		c-9.72,0-19.43,0-29.15,0c-10.97,0-21.93-0.1-32.9,0.07C809.48,586.88,808.8,586.11,809.13,583.4z"/>
</g>
</svg>
